<!DOCTYPE svg PUBLIC "-//W3C//DTD SVG 1.1//EN" "http://www.w3.org/Graphics/SVG/1.1/DTD/svg11.dtd">
<!-- Uploaded to: SVG Repo, www.svgrepo.com, Transformed by: SVG Repo Mixer Tools -->
<svg fill="#ffffff" height="800px" width="800px" version="1.1" id="Layer_1" xmlns="http://www.w3.org/2000/svg" xmlns:xlink="http://www.w3.org/1999/xlink" viewBox="0 0 512 512" xml:space="preserve" stroke="#ffffff">
<g id="SVGRepo_bgCarrier" stroke-width="0"/>
<g id="SVGRepo_tracerCarrier" stroke-linecap="round" stroke-linejoin="round"/>
<g id="SVGRepo_iconCarrier"> <g> <g> <path d="M80.859,0v450.362h168.886v-70.125c-4.013-9.184-6.255-19.311-6.255-29.955c0-41.388,33.672-75.06,75.06-75.06 s75.06,33.672,75.06,75.06c0,10.646-2.242,20.772-6.255,29.955v70.125h43.785V0H80.859z M256,250.201H137.155v-37.53H256V250.201z M374.845,175.141H137.155v-37.53h237.691V175.141z M374.845,100.08H137.155V62.55h237.691V100.08z"/> </g> </g> <g> <g> <circle cx="318.544" cy="350.281" r="37.53"/> </g> </g> <g> <g> <path d="M318.55,425.342c-11.167,0-21.751-2.457-31.275-6.829V512l31.275-15.638L349.825,512v-93.488 C340.301,422.885,329.717,425.342,318.55,425.342z"/> </g> </g> </g>
</svg>