<svg xmlns="http://www.w3.org/2000/svg" xmlns:xlink="http://www.w3.org/1999/xlink" viewBox="0,0,256,256" width="128px" height="128px" fill-rule="nonzero"><g fill="#ffffff" fill-rule="nonzero" stroke="none" stroke-width="1" stroke-linecap="butt" stroke-linejoin="miter" stroke-miterlimit="10" stroke-dasharray="" stroke-dashoffset="0" font-family="none" font-weight="none" font-size="none" text-anchor="none" style="mix-blend-mode: normal"><g transform="scale(2,2)"><path d="M27.49,66.59c0.02,0.01 0.03,0.01 0.05,0.02v0l35,19.56c0.46,0.25 0.96,0.38 1.46,0.38c0.5,0 1.01,-0.13 1.46,-0.38l25.41,-14.2l-26.87,46.08l-18.69,-32.04c-0.83,-1.43 -2.67,-1.92 -4.1,-1.08c-1.43,0.83 -1.91,2.67 -1.08,4.1l21.28,36.48c0.54,0.92 1.52,1.49 2.59,1.49c1.07,0 2.05,-0.57 2.59,-1.49l35,-60c0.56,-0.96 0.51,-2.11 -0.01,-3.01l0.01,-0.01l-35,-60c-0.54,-0.92 -1.52,-1.49 -2.59,-1.49c-1.07,0 -2.05,0.57 -2.59,1.49l-35,60c-0.84,1.43 -0.35,3.27 1.08,4.1zM64,9.95l30.87,52.92l-27.87,15.58v-44.45c0,-1.66 -1.34,-3 -3,-3c-1.66,0 -3,1.34 -3,3v44.45l-27.87,-15.58zM9.22,26.89l12,7.21c1.42,0.85 3.26,0.39 4.12,-1.03c0.85,-1.42 0.39,-3.26 -1.03,-4.12l-12,-7.21c-1.42,-0.85 -3.26,-0.39 -4.12,1.03c-0.86,1.42 -0.39,3.26 1.03,4.12zM4,56h12c1.09,0 2.05,-0.58 2.57,-1.46c0.27,-0.45 0.43,-0.98 0.43,-1.54c0,-1.66 -1.34,-3 -3,-3h-12c-1.66,0 -3,1.34 -3,3c0,1.66 1.34,3 3,3zM35.9,16.88c0.78,1.46 2.59,2.02 4.06,1.24c0.5,-0.26 0.89,-0.65 1.16,-1.1c0.52,-0.87 0.59,-1.99 0.08,-2.96l-5.63,-10.6c-0.78,-1.46 -2.59,-2.02 -4.06,-1.24c-1.46,0.78 -2.02,2.59 -1.24,4.06zM106.88,34.14l11.91,-7.15c1.68,-1.01 2.02,-3.41 0.41,-4.85c-0.98,-0.88 -2.47,-0.91 -3.6,-0.23l-11.91,7.15c-1.68,1.01 -2.02,3.41 -0.41,4.85c0.98,0.88 2.47,0.91 3.6,0.23zM109.01,52.78c-0.05,0.65 0.11,1.25 0.42,1.76c0.52,0.87 1.48,1.46 2.57,1.46h11.89c1.32,0 2.58,-0.79 2.96,-2.05c0.63,-2.06 -0.89,-3.95 -2.85,-3.95h-11.81c-1.61,0 -3.07,1.18 -3.18,2.78zM88.24,18.32c1.47,0.65 3.19,-0.08 3.95,-1.5l5.55,-10.43c0.8,-1.5 0.19,-3.38 -1.36,-4.12c-1.48,-0.71 -3.26,0.03 -4.03,1.47l-5.55,10.43c-0.51,0.96 -0.45,2.08 0.08,2.96c0.31,0.5 0.77,0.93 1.36,1.19z"></path></g></g></svg>